<?xml version="1.0" encoding="UTF-8" standalone="no"?>
<!-- Created with Inkscape (http://www.inkscape.org/) -->

<svg
   xmlns:dc="http://purl.org/dc/elements/1.1/"
   xmlns:cc="http://creativecommons.org/ns#"
   xmlns:rdf="http://www.w3.org/1999/02/22-rdf-syntax-ns#"
   xmlns:svg="http://www.w3.org/2000/svg"
   xmlns="http://www.w3.org/2000/svg"
   xmlns:sodipodi="http://sodipodi.sourceforge.net/DTD/sodipodi-0.dtd"
   xmlns:inkscape="http://www.inkscape.org/namespaces/inkscape"
   width="48pt"
   height="48pt"
   viewBox="0 0 16.933334 16.933333"
   version="1.1"
   id="svg979"
   inkscape:version="0.92.4 (5da689c313, 2019-01-14)"
   sodipodi:docname="2 - Profit.svg"
   inkscape:export-filename="E:\TR Design Studio Creative\Project Design\TR Creative Design\Icon Design\Project Hiring\Icon Icons\003 - Business And Finance\Send\4 - Filled Line\1 - Investment.png"
   inkscape:export-xdpi="768"
   inkscape:export-ydpi="768">
  <defs
     id="defs973" />
  <sodipodi:namedview
     id="base"
     pagecolor="#ffffff"
     bordercolor="#666666"
     borderopacity="1.0"
     inkscape:pageopacity="0.0"
     inkscape:pageshadow="2"
     inkscape:zoom="8.546875"
     inkscape:cx="32"
     inkscape:cy="32"
     inkscape:document-units="pt"
     inkscape:current-layer="layer1"
     showgrid="false"
     units="pt"
     inkscape:window-width="1366"
     inkscape:window-height="716"
     inkscape:window-x="-8"
     inkscape:window-y="-8"
     inkscape:window-maximized="1"
     inkscape:snap-bbox="true"
     inkscape:bbox-nodes="true"
     inkscape:snap-nodes="false"
     showguides="false">
    <inkscape:grid
       type="xygrid"
       id="grid1526" />
    <sodipodi:guide
       position="0.97013909,15.963209"
       orientation="56.666615,0"
       id="guide1528"
       inkscape:locked="false" />
    <sodipodi:guide
       position="0.97013909,0.97016731"
       orientation="0,56.666667"
       id="guide1530"
       inkscape:locked="false" />
    <sodipodi:guide
       position="15.963195,0.97016731"
       orientation="-56.666615,0"
       id="guide1532"
       inkscape:locked="false" />
    <sodipodi:guide
       position="15.963195,15.963209"
       orientation="0,-56.666667"
       id="guide1534"
       inkscape:locked="false" />
  </sodipodi:namedview>
  <metadata
     id="metadata976">
    <rdf:RDF>
      <cc:Work
         rdf:about="">
        <dc:format>image/svg+xml</dc:format>
        <dc:type
           rdf:resource="http://purl.org/dc/dcmitype/StillImage" />
        <dc:title></dc:title>
      </cc:Work>
    </rdf:RDF>
  </metadata>
  <g
     inkscape:label="Layer 1"
     inkscape:groupmode="layer"
     id="layer1"
     transform="translate(0,-280.06668)">
    <g
       transform="matrix(1.2317562,0,0,1.2317562,27.760072,-42.361659)"
       id="g2411"
       style="stroke-width:0.81184894">
      <path
         inkscape:connector-curvature="0"
         id="path1603"
         d="m -20.032908,272.86909 c -0.508448,0 -0.925781,0.41734 -0.925781,0.92578 0,0.50845 0.417333,0.92774 0.925781,0.92774 h 3.175781 c 0.508448,0 0.925782,-0.41929 0.925782,-0.92774 0,-0.50844 -0.417334,-0.92578 -0.925782,-0.92578 z"
         style="color:#000000;font-style:normal;font-variant:normal;font-weight:normal;font-stretch:normal;font-size:medium;line-height:normal;font-family:sans-serif;font-variant-ligatures:normal;font-variant-position:normal;font-variant-caps:normal;font-variant-numeric:normal;font-variant-alternates:normal;font-feature-settings:normal;text-indent:0;text-align:start;text-decoration:none;text-decoration-line:none;text-decoration-style:solid;text-decoration-color:#000000;letter-spacing:normal;word-spacing:normal;text-transform:none;writing-mode:lr-tb;direction:ltr;text-orientation:mixed;dominant-baseline:auto;baseline-shift:baseline;text-anchor:start;white-space:normal;shape-padding:0;clip-rule:nonzero;display:inline;overflow:visible;visibility:visible;isolation:auto;mix-blend-mode:normal;color-interpolation:sRGB;color-interpolation-filters:linearRGB;solid-color:#000000;solid-opacity:1;vector-effect:none;fill:#ffcd40;fill-opacity:1;fill-rule:nonzero;stroke:none;stroke-width:0.42960367;stroke-linecap:round;stroke-linejoin:round;stroke-miterlimit:4;stroke-dasharray:none;stroke-dashoffset:0;stroke-opacity:1;paint-order:markers fill stroke;color-rendering:auto;image-rendering:auto;shape-rendering:auto;text-rendering:auto;enable-background:accumulate" />
      <path
         inkscape:connector-curvature="0"
         d="m -20.032908,272.8691 c -0.47557,-0.0105 -0.908061,0.40062 -0.923666,0.87567 -0.01572,0.0893 0.121274,0.0304 0.180034,0.0473 1.207048,0.002 2.414164,-0.003 3.621168,0.003 0.238602,0.007 0.55318,0.0343 0.655208,0.2912 0.06712,0.18366 0.04389,0.39025 -0.02546,0.56964 0.45653,-0.16514 0.716758,-0.7245 0.537564,-1.17799 -0.134645,-0.38344 -0.540235,-0.63921 -0.943507,-0.60835 -1.033779,-4e-5 -2.067558,-7e-5 -3.101337,-1.1e-4 z"
         style="color:#000000;font-style:normal;font-variant:normal;font-weight:normal;font-stretch:normal;font-size:medium;line-height:normal;font-family:sans-serif;font-variant-ligatures:normal;font-variant-position:normal;font-variant-caps:normal;font-variant-numeric:normal;font-variant-alternates:normal;font-feature-settings:normal;text-indent:0;text-align:start;text-decoration:none;text-decoration-line:none;text-decoration-style:solid;text-decoration-color:#000000;letter-spacing:normal;word-spacing:normal;text-transform:none;writing-mode:lr-tb;direction:ltr;text-orientation:mixed;dominant-baseline:auto;baseline-shift:baseline;text-anchor:start;white-space:normal;shape-padding:0;clip-rule:nonzero;display:inline;overflow:visible;visibility:visible;isolation:auto;mix-blend-mode:normal;color-interpolation:sRGB;color-interpolation-filters:linearRGB;solid-color:#000000;solid-opacity:1;vector-effect:none;fill:#f8a92d;fill-opacity:1;fill-rule:nonzero;stroke:none;stroke-width:0.42960367;stroke-linecap:round;stroke-linejoin:round;stroke-miterlimit:4;stroke-dasharray:none;stroke-dashoffset:0;stroke-opacity:1;paint-order:markers fill stroke;color-rendering:auto;image-rendering:auto;shape-rendering:auto;text-rendering:auto;enable-background:accumulate"
         id="path1698" />
      <path
         inkscape:connector-curvature="0"
         id="path1589"
         d="m -20.562205,271.54683 c -0.508449,0 -0.925781,0.41733 -0.925781,0.92578 0,0.50844 0.417332,0.92578 0.925781,0.92578 h 3.175781 c 0.50845,0 0.925782,-0.41734 0.925782,-0.92578 0,-0.50845 -0.417332,-0.92578 -0.925782,-0.92578 z"
         style="color:#000000;font-style:normal;font-variant:normal;font-weight:normal;font-stretch:normal;font-size:medium;line-height:normal;font-family:sans-serif;font-variant-ligatures:normal;font-variant-position:normal;font-variant-caps:normal;font-variant-numeric:normal;font-variant-alternates:normal;font-feature-settings:normal;text-indent:0;text-align:start;text-decoration:none;text-decoration-line:none;text-decoration-style:solid;text-decoration-color:#000000;letter-spacing:normal;word-spacing:normal;text-transform:none;writing-mode:lr-tb;direction:ltr;text-orientation:mixed;dominant-baseline:auto;baseline-shift:baseline;text-anchor:start;white-space:normal;shape-padding:0;clip-rule:nonzero;display:inline;overflow:visible;visibility:visible;isolation:auto;mix-blend-mode:normal;color-interpolation:sRGB;color-interpolation-filters:linearRGB;solid-color:#000000;solid-opacity:1;vector-effect:none;fill:#ffcd40;fill-opacity:1;fill-rule:nonzero;stroke:none;stroke-width:0.42960367;stroke-linecap:round;stroke-linejoin:round;stroke-miterlimit:4;stroke-dasharray:none;stroke-dashoffset:0;stroke-opacity:1;paint-order:markers fill stroke;color-rendering:auto;image-rendering:auto;shape-rendering:auto;text-rendering:auto;enable-background:accumulate" />
      <path
         inkscape:connector-curvature="0"
         id="path1617"
         d="m -13.94697,272.86909 c -0.508448,0 -0.925782,0.41734 -0.925782,0.92578 0,0.50845 0.417334,0.92774 0.925782,0.92774 h 3.173828 c 0.508447,0 0.925781,-0.41929 0.925781,-0.92774 0,-0.50844 -0.417334,-0.92578 -0.925781,-0.92578 z"
         style="color:#000000;font-style:normal;font-variant:normal;font-weight:normal;font-stretch:normal;font-size:medium;line-height:normal;font-family:sans-serif;font-variant-ligatures:normal;font-variant-position:normal;font-variant-caps:normal;font-variant-numeric:normal;font-variant-alternates:normal;font-feature-settings:normal;text-indent:0;text-align:start;text-decoration:none;text-decoration-line:none;text-decoration-style:solid;text-decoration-color:#000000;letter-spacing:normal;word-spacing:normal;text-transform:none;writing-mode:lr-tb;direction:ltr;text-orientation:mixed;dominant-baseline:auto;baseline-shift:baseline;text-anchor:start;white-space:normal;shape-padding:0;clip-rule:nonzero;display:inline;overflow:visible;visibility:visible;isolation:auto;mix-blend-mode:normal;color-interpolation:sRGB;color-interpolation-filters:linearRGB;solid-color:#000000;solid-opacity:1;vector-effect:none;fill:#ffcd40;fill-opacity:1;fill-rule:nonzero;stroke:none;stroke-width:0.42960367;stroke-linecap:round;stroke-linejoin:round;stroke-miterlimit:4;stroke-dasharray:none;stroke-dashoffset:0;stroke-opacity:1;paint-order:markers fill stroke;color-rendering:auto;image-rendering:auto;shape-rendering:auto;text-rendering:auto;enable-background:accumulate" />
      <path
         inkscape:connector-curvature="0"
         id="path1718"
         style="color:#000000;font-style:normal;font-variant:normal;font-weight:normal;font-stretch:normal;font-size:medium;line-height:normal;font-family:sans-serif;font-variant-ligatures:normal;font-variant-position:normal;font-variant-caps:normal;font-variant-numeric:normal;font-variant-alternates:normal;font-feature-settings:normal;text-indent:0;text-align:start;text-decoration:none;text-decoration-line:none;text-decoration-style:solid;text-decoration-color:#000000;letter-spacing:normal;word-spacing:normal;text-transform:none;writing-mode:lr-tb;direction:ltr;text-orientation:mixed;dominant-baseline:auto;baseline-shift:baseline;text-anchor:start;white-space:normal;shape-padding:0;clip-rule:nonzero;display:inline;overflow:visible;visibility:visible;isolation:auto;mix-blend-mode:normal;color-interpolation:sRGB;color-interpolation-filters:linearRGB;solid-color:#000000;solid-opacity:1;vector-effect:none;fill:#f8a92d;fill-opacity:1;fill-rule:nonzero;stroke:none;stroke-width:0.42960367;stroke-linecap:round;stroke-linejoin:round;stroke-miterlimit:4;stroke-dasharray:none;stroke-dashoffset:0;stroke-opacity:1;paint-order:markers fill stroke;color-rendering:auto;image-rendering:auto;shape-rendering:auto;text-rendering:auto;enable-background:accumulate"
         d="m -13.949273,272.88111 c -0.475571,-0.0105 -0.908062,0.40062 -0.923667,0.87567 -0.01572,0.0893 0.121274,0.0304 0.180034,0.0473 1.207048,0.002 2.414164,-0.003 3.621168,0.003 0.238602,0.007 0.553181,0.0343 0.655209,0.2912 0.06712,0.18366 0.04389,0.39025 -0.02546,0.56964 0.45653,-0.16514 0.716759,-0.7245 0.537564,-1.17799 -0.134645,-0.38344 -0.540235,-0.63921 -0.943507,-0.60835 -1.03378,-4e-5 -2.067558,-7e-5 -3.101337,-1.1e-4 z" />
      <path
         inkscape:connector-curvature="0"
         id="path1631"
         d="m -14.741892,271.54683 c -0.50845,0 -0.925782,0.41733 -0.925782,0.92578 0,0.50844 0.417332,0.92578 0.925782,0.92578 h 3.175781 c 0.508449,0 0.925781,-0.41734 0.925781,-0.92578 0,-0.50845 -0.417332,-0.92578 -0.925781,-0.92578 z"
         style="color:#000000;font-style:normal;font-variant:normal;font-weight:normal;font-stretch:normal;font-size:medium;line-height:normal;font-family:sans-serif;font-variant-ligatures:normal;font-variant-position:normal;font-variant-caps:normal;font-variant-numeric:normal;font-variant-alternates:normal;font-feature-settings:normal;text-indent:0;text-align:start;text-decoration:none;text-decoration-line:none;text-decoration-style:solid;text-decoration-color:#000000;letter-spacing:normal;word-spacing:normal;text-transform:none;writing-mode:lr-tb;direction:ltr;text-orientation:mixed;dominant-baseline:auto;baseline-shift:baseline;text-anchor:start;white-space:normal;shape-padding:0;clip-rule:nonzero;display:inline;overflow:visible;visibility:visible;isolation:auto;mix-blend-mode:normal;color-interpolation:sRGB;color-interpolation-filters:linearRGB;solid-color:#000000;solid-opacity:1;vector-effect:none;fill:#ffcd40;fill-opacity:1;fill-rule:nonzero;stroke:none;stroke-width:0.42960367;stroke-linecap:round;stroke-linejoin:round;stroke-miterlimit:4;stroke-dasharray:none;stroke-dashoffset:0;stroke-opacity:1;paint-order:markers fill stroke;color-rendering:auto;image-rendering:auto;shape-rendering:auto;text-rendering:auto;enable-background:accumulate" />
      <path
         inkscape:connector-curvature="0"
         d="m -14.733558,271.54888 c -0.47557,-0.0105 -0.908061,0.40062 -0.923666,0.87567 -0.01572,0.0893 0.121274,0.0304 0.180034,0.0473 1.207048,0.002 2.414164,-0.003 3.621167,0.003 0.238602,0.007 0.553181,0.0343 0.655209,0.2912 0.06712,0.18366 0.04389,0.39025 -0.02546,0.56964 0.45653,-0.16514 0.716759,-0.7245 0.537564,-1.17799 -0.134645,-0.38344 -0.540235,-0.63921 -0.943507,-0.60835 -1.033779,-4e-5 -2.067557,-7e-5 -3.101336,-1.1e-4 z"
         style="color:#000000;font-style:normal;font-variant:normal;font-weight:normal;font-stretch:normal;font-size:medium;line-height:normal;font-family:sans-serif;font-variant-ligatures:normal;font-variant-position:normal;font-variant-caps:normal;font-variant-numeric:normal;font-variant-alternates:normal;font-feature-settings:normal;text-indent:0;text-align:start;text-decoration:none;text-decoration-line:none;text-decoration-style:solid;text-decoration-color:#000000;letter-spacing:normal;word-spacing:normal;text-transform:none;writing-mode:lr-tb;direction:ltr;text-orientation:mixed;dominant-baseline:auto;baseline-shift:baseline;text-anchor:start;white-space:normal;shape-padding:0;clip-rule:nonzero;display:inline;overflow:visible;visibility:visible;isolation:auto;mix-blend-mode:normal;color-interpolation:sRGB;color-interpolation-filters:linearRGB;solid-color:#000000;solid-opacity:1;vector-effect:none;fill:#f8a92d;fill-opacity:1;fill-rule:nonzero;stroke:none;stroke-width:0.42960367;stroke-linecap:round;stroke-linejoin:round;stroke-miterlimit:4;stroke-dasharray:none;stroke-dashoffset:0;stroke-opacity:1;paint-order:markers fill stroke;color-rendering:auto;image-rendering:auto;shape-rendering:auto;text-rendering:auto;enable-background:accumulate"
         id="path1716" />
      <path
         inkscape:connector-curvature="0"
         id="path1645"
         d="m -13.94697,270.22456 c -0.508443,0 -0.925782,0.41733 -0.925782,0.92578 0,0.50845 0.417334,0.92578 0.925782,0.92578 h 3.173828 c 0.508447,0 0.925781,-0.41733 0.925781,-0.92578 0,-0.50845 -0.417339,-0.92578 -0.925781,-0.92578 z"
         style="color:#000000;font-style:normal;font-variant:normal;font-weight:normal;font-stretch:normal;font-size:medium;line-height:normal;font-family:sans-serif;font-variant-ligatures:normal;font-variant-position:normal;font-variant-caps:normal;font-variant-numeric:normal;font-variant-alternates:normal;font-feature-settings:normal;text-indent:0;text-align:start;text-decoration:none;text-decoration-line:none;text-decoration-style:solid;text-decoration-color:#000000;letter-spacing:normal;word-spacing:normal;text-transform:none;writing-mode:lr-tb;direction:ltr;text-orientation:mixed;dominant-baseline:auto;baseline-shift:baseline;text-anchor:start;white-space:normal;shape-padding:0;clip-rule:nonzero;display:inline;overflow:visible;visibility:visible;isolation:auto;mix-blend-mode:normal;color-interpolation:sRGB;color-interpolation-filters:linearRGB;solid-color:#000000;solid-opacity:1;vector-effect:none;fill:#ffcd40;fill-opacity:1;fill-rule:nonzero;stroke:none;stroke-width:0.42960367;stroke-linecap:round;stroke-linejoin:round;stroke-miterlimit:4;stroke-dasharray:none;stroke-dashoffset:0;stroke-opacity:1;paint-order:markers fill stroke;color-rendering:auto;image-rendering:auto;shape-rendering:auto;text-rendering:auto;enable-background:accumulate" />
      <path
         inkscape:connector-curvature="0"
         id="path1714"
         style="color:#000000;font-style:normal;font-variant:normal;font-weight:normal;font-stretch:normal;font-size:medium;line-height:normal;font-family:sans-serif;font-variant-ligatures:normal;font-variant-position:normal;font-variant-caps:normal;font-variant-numeric:normal;font-variant-alternates:normal;font-feature-settings:normal;text-indent:0;text-align:start;text-decoration:none;text-decoration-line:none;text-decoration-style:solid;text-decoration-color:#000000;letter-spacing:normal;word-spacing:normal;text-transform:none;writing-mode:lr-tb;direction:ltr;text-orientation:mixed;dominant-baseline:auto;baseline-shift:baseline;text-anchor:start;white-space:normal;shape-padding:0;clip-rule:nonzero;display:inline;overflow:visible;visibility:visible;isolation:auto;mix-blend-mode:normal;color-interpolation:sRGB;color-interpolation-filters:linearRGB;solid-color:#000000;solid-opacity:1;vector-effect:none;fill:#f8a92d;fill-opacity:1;fill-rule:nonzero;stroke:none;stroke-width:0.42960367;stroke-linecap:round;stroke-linejoin:round;stroke-miterlimit:4;stroke-dasharray:none;stroke-dashoffset:0;stroke-opacity:1;paint-order:markers fill stroke;color-rendering:auto;image-rendering:auto;shape-rendering:auto;text-rendering:auto;enable-background:accumulate"
         d="m -13.940589,270.22661 c -0.475571,-0.0105 -0.908062,0.40062 -0.923667,0.87567 -0.01572,0.0893 0.121275,0.0304 0.180034,0.0473 1.207048,0.002 2.414164,-0.003 3.621168,0.003 0.238602,0.007 0.553181,0.0343 0.655209,0.2912 0.06712,0.18366 0.04389,0.39025 -0.02546,0.56964 0.45653,-0.16514 0.716759,-0.7245 0.537564,-1.17799 -0.134645,-0.38344 -0.540235,-0.63921 -0.943507,-0.60835 -1.03378,-4e-5 -2.067558,-7e-5 -3.101337,-1.1e-4 z" />
      <path
         inkscape:connector-curvature="0"
         id="path1659"
         d="m -14.741892,268.90034 c -0.50845,0 -0.925782,0.41734 -0.925782,0.92578 0,0.50846 0.417332,0.92774 0.925782,0.92774 h 3.175781 c 0.508449,0 0.925781,-0.41929 0.925781,-0.92774 0,-0.50844 -0.417332,-0.92578 -0.925781,-0.92578 z"
         style="color:#000000;font-style:normal;font-variant:normal;font-weight:normal;font-stretch:normal;font-size:medium;line-height:normal;font-family:sans-serif;font-variant-ligatures:normal;font-variant-position:normal;font-variant-caps:normal;font-variant-numeric:normal;font-variant-alternates:normal;font-feature-settings:normal;text-indent:0;text-align:start;text-decoration:none;text-decoration-line:none;text-decoration-style:solid;text-decoration-color:#000000;letter-spacing:normal;word-spacing:normal;text-transform:none;writing-mode:lr-tb;direction:ltr;text-orientation:mixed;dominant-baseline:auto;baseline-shift:baseline;text-anchor:start;white-space:normal;shape-padding:0;clip-rule:nonzero;display:inline;overflow:visible;visibility:visible;isolation:auto;mix-blend-mode:normal;color-interpolation:sRGB;color-interpolation-filters:linearRGB;solid-color:#000000;solid-opacity:1;vector-effect:none;fill:#ffcd40;fill-opacity:1;fill-rule:nonzero;stroke:none;stroke-width:0.42960367;stroke-linecap:round;stroke-linejoin:round;stroke-miterlimit:4;stroke-dasharray:none;stroke-dashoffset:0;stroke-opacity:1;paint-order:markers fill stroke;color-rendering:auto;image-rendering:auto;shape-rendering:auto;text-rendering:auto;enable-background:accumulate" />
      <path
         inkscape:connector-curvature="0"
         id="path1567"
         d="m -18.974314,267.31245 c -1.311992,0 -2.380856,1.07082 -2.38086,2.38281 -2e-6,1.312 1.068864,2.38086 2.38086,2.38086 1.311996,0 2.380861,-1.06886 2.380859,-2.38086 -4e-6,-1.31199 -1.068868,-2.38281 -2.380859,-2.38281 z"
         style="color:#000000;font-style:normal;font-variant:normal;font-weight:normal;font-stretch:normal;font-size:medium;line-height:normal;font-family:sans-serif;font-variant-ligatures:normal;font-variant-position:normal;font-variant-caps:normal;font-variant-numeric:normal;font-variant-alternates:normal;font-feature-settings:normal;text-indent:0;text-align:start;text-decoration:none;text-decoration-line:none;text-decoration-style:solid;text-decoration-color:#000000;letter-spacing:normal;word-spacing:normal;text-transform:none;writing-mode:lr-tb;direction:ltr;text-orientation:mixed;dominant-baseline:auto;baseline-shift:baseline;text-anchor:start;white-space:normal;shape-padding:0;clip-rule:nonzero;display:inline;overflow:visible;visibility:visible;isolation:auto;mix-blend-mode:normal;color-interpolation:sRGB;color-interpolation-filters:linearRGB;solid-color:#000000;solid-opacity:1;vector-effect:none;fill:#ffcd40;fill-opacity:1;fill-rule:nonzero;stroke:none;stroke-width:0.42960367;stroke-linecap:round;stroke-linejoin:round;stroke-miterlimit:4;stroke-dasharray:none;stroke-dashoffset:0;stroke-opacity:1;paint-order:markers fill stroke;color-rendering:auto;image-rendering:auto;shape-rendering:auto;text-rendering:auto;enable-background:accumulate" />
      <path
         inkscape:connector-curvature="0"
         id="path1673"
         d="m -15.931345,262.55073 a 0.26460996,0.26460996 0 0 0 -0.220704,0.11719 l -2.117187,3.17578 a 0.26460996,0.26460996 0 0 0 0.220703,0.41211 h 0.619141 l 0.724609,1.69141 a 0.26460996,0.26460996 0 0 0 0.244141,0.16015 h 1.058593 a 0.26460996,0.26460996 0 0 0 0.242188,-0.16015 l 0.724609,-1.69141 h 0.619141 a 0.26460996,0.26460996 0 0 0 0.220703,-0.41211 l -2.117188,-3.17578 a 0.26460996,0.26460996 0 0 0 -0.218749,-0.11719 z"
         style="color:#000000;font-style:normal;font-variant:normal;font-weight:normal;font-stretch:normal;font-size:medium;line-height:normal;font-family:sans-serif;font-variant-ligatures:normal;font-variant-position:normal;font-variant-caps:normal;font-variant-numeric:normal;font-variant-alternates:normal;font-feature-settings:normal;text-indent:0;text-align:start;text-decoration:none;text-decoration-line:none;text-decoration-style:solid;text-decoration-color:#000000;letter-spacing:normal;word-spacing:normal;text-transform:none;writing-mode:lr-tb;direction:ltr;text-orientation:mixed;dominant-baseline:auto;baseline-shift:baseline;text-anchor:start;white-space:normal;shape-padding:0;clip-rule:nonzero;display:inline;overflow:visible;visibility:visible;isolation:auto;mix-blend-mode:normal;color-interpolation:sRGB;color-interpolation-filters:linearRGB;solid-color:#000000;solid-opacity:1;vector-effect:none;fill:#7cb342;fill-opacity:1;fill-rule:nonzero;stroke:none;stroke-width:0.42960367;stroke-linecap:round;stroke-linejoin:round;stroke-miterlimit:4;stroke-dasharray:none;stroke-dashoffset:0;stroke-opacity:1;paint-order:markers fill stroke;color-rendering:auto;image-rendering:auto;shape-rendering:auto;text-rendering:auto;enable-background:accumulate" />
      <path
         inkscape:connector-curvature="0"
         d="m -15.931351,262.55086 a 0.26460995,0.26460995 0 0 0 -0.220658,0.11731 l -0.04496,0.0672 2.072224,3.10834 a 0.26460995,0.26460995 0 0 1 -0.220657,0.41237 h 0.529165 a 0.26460995,0.26460995 0 0 0 0.220659,-0.41237 l -2.117183,-3.17552 a 0.26460995,0.26460995 0 0 0 -0.21859,-0.11733 z m 0.966866,3.7052 -0.724504,1.69137 a 0.26460995,0.26460995 0 0 1 -0.242362,0.15968 h 0.529167 a 0.26460995,0.26460995 0 0 0 0.242362,-0.15968 l 0.724504,-1.69137 z"
         style="color:#000000;font-style:normal;font-variant:normal;font-weight:normal;font-stretch:normal;font-size:medium;line-height:normal;font-family:sans-serif;font-variant-ligatures:normal;font-variant-position:normal;font-variant-caps:normal;font-variant-numeric:normal;font-variant-alternates:normal;font-feature-settings:normal;text-indent:0;text-align:start;text-decoration:none;text-decoration-line:none;text-decoration-style:solid;text-decoration-color:#000000;letter-spacing:normal;word-spacing:normal;text-transform:none;writing-mode:lr-tb;direction:ltr;text-orientation:mixed;dominant-baseline:auto;baseline-shift:baseline;text-anchor:start;white-space:normal;shape-padding:0;clip-rule:nonzero;display:inline;overflow:visible;visibility:visible;isolation:auto;mix-blend-mode:normal;color-interpolation:sRGB;color-interpolation-filters:linearRGB;solid-color:#000000;solid-opacity:1;vector-effect:none;fill:#699938;fill-opacity:1;fill-rule:nonzero;stroke:none;stroke-width:0.42960367;stroke-linecap:round;stroke-linejoin:round;stroke-miterlimit:4;stroke-dasharray:none;stroke-dashoffset:0;stroke-opacity:1;paint-order:markers fill stroke;color-rendering:auto;image-rendering:auto;shape-rendering:auto;text-rendering:auto;enable-background:accumulate"
         id="path1683" />
      <path
         inkscape:connector-curvature="0"
         d="m -18.974058,267.31235 c -0.790026,0 -1.489974,0.39007 -1.923397,0.98547 0.392469,-0.28542 0.873582,-0.45631 1.39423,-0.45631 1.311991,0 2.380729,1.07081 2.380733,2.3828 2e-6,0.52125 -0.170663,1.00307 -0.456303,1.39578 0.595762,-0.43332 0.985472,-1.13419 0.98547,-1.92494 -4e-6,-1.31199 -1.068742,-2.3828 -2.380733,-2.3828 z"
         style="color:#000000;font-style:normal;font-variant:normal;font-weight:normal;font-stretch:normal;font-size:medium;line-height:normal;font-family:sans-serif;font-variant-ligatures:normal;font-variant-position:normal;font-variant-caps:normal;font-variant-numeric:normal;font-variant-alternates:normal;font-feature-settings:normal;text-indent:0;text-align:start;text-decoration:none;text-decoration-line:none;text-decoration-style:solid;text-decoration-color:#000000;letter-spacing:normal;word-spacing:normal;text-transform:none;writing-mode:lr-tb;direction:ltr;text-orientation:mixed;dominant-baseline:auto;baseline-shift:baseline;text-anchor:start;white-space:normal;shape-padding:0;clip-rule:nonzero;display:inline;overflow:visible;visibility:visible;isolation:auto;mix-blend-mode:normal;color-interpolation:sRGB;color-interpolation-filters:linearRGB;solid-color:#000000;solid-opacity:1;vector-effect:none;fill:#f8a92d;fill-opacity:1;fill-rule:nonzero;stroke:none;stroke-width:0.42960367;stroke-linecap:round;stroke-linejoin:round;stroke-miterlimit:4;stroke-dasharray:none;stroke-dashoffset:0;stroke-opacity:1;paint-order:markers fill stroke;color-rendering:auto;image-rendering:auto;shape-rendering:auto;text-rendering:auto;enable-background:accumulate"
         id="path1688" />
      <path
         inkscape:connector-curvature="0"
         d="m -20.562075,271.54674 c -0.391359,0 -0.726297,0.24854 -0.860929,0.59428 0.103441,-0.0403 0.214672,-0.0651 0.331762,-0.0651 h 3.175517 c 0.508449,0 0.92604,0.41759 0.92604,0.92604 0,0.11712 -0.02481,0.22831 -0.06511,0.33177 0.345741,-0.13464 0.594279,-0.46958 0.594279,-0.86093 0,-0.50845 -0.417592,-0.92604 -0.926042,-0.92604 z"
         style="color:#000000;font-style:normal;font-variant:normal;font-weight:normal;font-stretch:normal;font-size:medium;line-height:normal;font-family:sans-serif;font-variant-ligatures:normal;font-variant-position:normal;font-variant-caps:normal;font-variant-numeric:normal;font-variant-alternates:normal;font-feature-settings:normal;text-indent:0;text-align:start;text-decoration:none;text-decoration-line:none;text-decoration-style:solid;text-decoration-color:#000000;letter-spacing:normal;word-spacing:normal;text-transform:none;writing-mode:lr-tb;direction:ltr;text-orientation:mixed;dominant-baseline:auto;baseline-shift:baseline;text-anchor:start;white-space:normal;shape-padding:0;clip-rule:nonzero;display:inline;overflow:visible;visibility:visible;isolation:auto;mix-blend-mode:normal;color-interpolation:sRGB;color-interpolation-filters:linearRGB;solid-color:#000000;solid-opacity:1;vector-effect:none;fill:#f8a92d;fill-opacity:1;fill-rule:nonzero;stroke:none;stroke-width:0.42960367;stroke-linecap:round;stroke-linejoin:round;stroke-miterlimit:4;stroke-dasharray:none;stroke-dashoffset:0;stroke-opacity:1;paint-order:markers fill stroke;color-rendering:auto;image-rendering:auto;shape-rendering:auto;text-rendering:auto;enable-background:accumulate"
         id="path1693" />
      <path
         inkscape:connector-curvature="0"
         id="path1711"
         style="color:#000000;font-style:normal;font-variant:normal;font-weight:normal;font-stretch:normal;font-size:medium;line-height:normal;font-family:sans-serif;font-variant-ligatures:normal;font-variant-position:normal;font-variant-caps:normal;font-variant-numeric:normal;font-variant-alternates:normal;font-feature-settings:normal;text-indent:0;text-align:start;text-decoration:none;text-decoration-line:none;text-decoration-style:solid;text-decoration-color:#000000;letter-spacing:normal;word-spacing:normal;text-transform:none;writing-mode:lr-tb;direction:ltr;text-orientation:mixed;dominant-baseline:auto;baseline-shift:baseline;text-anchor:start;white-space:normal;shape-padding:0;clip-rule:nonzero;display:inline;overflow:visible;visibility:visible;isolation:auto;mix-blend-mode:normal;color-interpolation:sRGB;color-interpolation-filters:linearRGB;solid-color:#000000;solid-opacity:1;vector-effect:none;fill:#f8a92d;fill-opacity:1;fill-rule:nonzero;stroke:none;stroke-width:0.42960367;stroke-linecap:round;stroke-linejoin:round;stroke-miterlimit:4;stroke-dasharray:none;stroke-dashoffset:0;stroke-opacity:1;paint-order:markers fill stroke;color-rendering:auto;image-rendering:auto;shape-rendering:auto;text-rendering:auto;enable-background:accumulate"
         d="m -14.741242,268.90089 c -0.391358,0 -0.726296,0.24854 -0.860929,0.59428 0.103442,-0.0403 0.214672,-0.0651 0.331763,-0.0651 h 3.175516 c 0.50845,0 0.926041,0.41759 0.926041,0.92604 0,0.11712 -0.02481,0.22831 -0.06511,0.33177 0.345741,-0.13464 0.594279,-0.46958 0.594279,-0.86093 0,-0.50845 -0.417592,-0.92604 -0.926042,-0.92604 z" />
      <path
         sodipodi:nodetypes="cccccccccccccccccccccccccccsscsscsssscsscsssssssccccccccccccsscscscsssscscscssssssssssscssscssssssscssssssssssscssssssscssssss"
         inkscape:connector-curvature="0"
         id="rect904"
         d="m -15.932361,262.55094 c -0.08708,10e-4 -0.16805,0.045 -0.216524,0.11731 l -2.115116,3.17603 c -0.117438,0.17534 0.0076,0.41086 0.218591,0.41186 h 0.622184 l 0.708484,1.65055 c 0.02776,0.11405 0.125029,0.19623 0.239779,0.20257 0.0098,7.4e-4 0.01963,9.3e-4 0.02946,5.3e-4 h 1.045931 c 0.104318,4.8e-4 0.198944,-0.0625 0.240812,-0.1602 l 0.726571,-1.69343 h 0.62115 c 0.211965,6.3e-4 0.338615,-0.23575 0.220659,-0.41186 l -2.117184,-3.17604 c -0.0501,-0.0748 -0.134786,-0.11899 -0.224792,-0.1173 z m 0.0041,0.74259 1.623157,2.43345 h -0.235649 c -0.188453,0 -0.262225,0.0722 -0.319877,0.19482 l -0.709001,1.65261 h -0.716235 l -0.56534,-1.31827 h 0.393774 c 0.360787,0.008 0.360787,-0.53726 0,-0.52916 -0.371283,-0.0106 -0.731054,0 -1.09399,0 z m -3.043225,4.0194 c -1.311995,0 -2.380733,1.07081 -2.380733,2.3828 0,0.74724 0.347433,1.41462 0.888318,1.85156 h -0.09354 c -0.508449,0 -0.927592,0.41708 -0.927592,0.92553 0,0.41086 0.275683,0.75824 0.649056,0.87798 -0.07384,0.13272 -0.119889,0.28283 -0.119889,0.44442 0,0.50845 0.417595,0.92759 0.926041,0.92759 h 3.175517 c 0.508446,0 0.926042,-0.41914 0.926042,-0.92759 0,-0.41133 -0.274987,-0.75916 -0.648539,-0.8785 0.07356,-0.13252 0.119372,-0.28264 0.119372,-0.4439 0,-0.50845 -0.417593,-0.92553 -0.926042,-0.92553 h -0.09457 c 0.541431,-0.43694 0.889352,-1.10432 0.889352,-1.85156 0,-1.31199 -1.070807,-2.3828 -2.3828,-2.3828 z m 0,0.52916 c 1.026011,0 1.853634,0.82762 1.853634,1.85364 0,1.02602 -0.827623,1.85156 -1.853634,1.85156 -1.026011,0 -1.851566,-0.82555 -1.851566,-1.85156 0,-1.02601 0.825555,-1.85364 1.851566,-1.85364 z m -0.798401,0.79117 c -0.06874,0.002 -0.133979,0.0308 -0.181901,0.0801 l -0.263549,0.26562 c -0.271562,0.24845 0.123522,0.64518 0.373103,0.37465 l 0.265617,-0.26562 c 0.174445,-0.16852 0.04913,-0.46339 -0.19327,-0.45475 z m 1.058334,0.26562 c -0.06856,0.002 -0.13359,0.0309 -0.181385,0.0801 l -1.05885,1.05833 c -0.258956,0.25009 0.126516,0.63344 0.375171,0.3731 l 1.058334,-1.05678 c 0.174444,-0.16852 0.04913,-0.46339 -0.19327,-0.45475 z m 3.974434,0.002 c -0.508449,0 -0.925525,0.41709 -0.925525,0.92553 0,0.49588 0.397541,0.90395 0.888835,0.92397 -0.0594,0.12186 -0.09612,0.25668 -0.09612,0.40049 0,0.14362 0.03636,0.27825 0.0956,0.39998 -0.491054,0.0202 -0.888318,0.4262 -0.888318,0.92191 0,0.49571 0.397259,0.90223 0.888318,0.92242 -0.05924,0.12172 -0.0956,0.25636 -0.0956,0.39998 0,0.50845 0.417595,0.92759 0.926041,0.92759 h 3.175517 c 0.508447,0 0.9260421,-0.41914 0.9260421,-0.92759 0,-0.49591 -0.3980121,-0.90204 -0.8893511,-0.92191 0.05963,-0.12186 0.09612,-0.25667 0.09612,-0.40049 0,-0.14362 -0.03614,-0.27825 -0.0956,-0.39998 0.491105,-0.0201 0.8888351,-0.42616 0.8888351,-0.92191 0,-0.49608 -0.3982851,-0.90282 -0.8898681,-0.92242 0.05998,-0.12238 0.09664,-0.25777 0.09664,-0.40204 0,-0.50844 -0.419143,-0.92553 -0.927592,-0.92553 z m 0,0.52917 h 3.173962 c 0.224443,0 0.398425,0.17192 0.398425,0.39636 0,0.22445 -0.173982,0.39842 -0.398425,0.39842 h -3.173966 c -0.224444,0 -0.396359,-0.17397 -0.396359,-0.39842 0,-0.22444 0.171915,-0.39636 0.396359,-0.39636 z m 0.793233,1.32395 h 2.380734 0.794783 c 0.22444,0 0.396875,0.17243 0.396875,0.39687 0,0.22444 -0.172435,0.39636 -0.396875,0.39636 h -0.794788 -2.380733 c -0.22444,0 -0.396358,-0.17192 -0.396358,-0.39636 0,-0.22444 0.171918,-0.39687 0.396358,-0.39687 z m -6.613549,1.3224 h 3.173961 c 0.224444,0 0.396359,0.17191 0.396359,0.39636 0,0.22444 -0.171915,0.39687 -0.396359,0.39687 h -2.64635 -0.527616 c -0.224443,0 -0.398425,-0.17243 -0.398425,-0.39687 0,-0.22445 0.173982,-0.39636 0.398425,-0.39636 z m 5.820316,0 h 3.173962 c 0.224443,0 0.398425,0.17191 0.398425,0.39636 0,0.22444 -0.173982,0.39687 -0.398425,0.39687 h -3.173966 c -0.224444,0 -0.396359,-0.17243 -0.396359,-0.39687 0,-0.22445 0.171915,-0.39636 0.396359,-0.39636 z m -5.2927,1.3224 h 2.64635 0.529167 c 0.224441,0 0.396875,0.17192 0.396875,0.39636 0,0.22445 -0.172434,0.39842 -0.396875,0.39842 h -3.175522 c -0.224441,0 -0.396358,-0.17397 -0.396358,-0.39842 0,-0.22444 0.171917,-0.39636 0.396358,-0.39636 z m 6.085933,0 h 2.380734 0.794783 c 0.22444,0 0.396875,0.17192 0.396875,0.39636 0,0.22445 -0.172435,0.39842 -0.396875,0.39842 h -3.175521 c -0.22444,0 -0.396358,-0.17397 -0.396358,-0.39842 0,-0.22444 0.171918,-0.39636 0.396358,-0.39636 z"
         style="color:#000000;font-style:normal;font-variant:normal;font-weight:normal;font-stretch:normal;font-size:medium;line-height:normal;font-family:sans-serif;font-variant-ligatures:normal;font-variant-position:normal;font-variant-caps:normal;font-variant-numeric:normal;font-variant-alternates:normal;font-feature-settings:normal;text-indent:0;text-align:start;text-decoration:none;text-decoration-line:none;text-decoration-style:solid;text-decoration-color:#000000;letter-spacing:normal;word-spacing:normal;text-transform:none;writing-mode:lr-tb;direction:ltr;text-orientation:mixed;dominant-baseline:auto;baseline-shift:baseline;text-anchor:start;white-space:normal;shape-padding:0;clip-rule:nonzero;display:inline;overflow:visible;visibility:visible;isolation:auto;mix-blend-mode:normal;color-interpolation:sRGB;color-interpolation-filters:linearRGB;solid-color:#000000;solid-opacity:1;vector-effect:none;fill:#000000;fill-opacity:1;fill-rule:nonzero;stroke:none;stroke-width:0.42960367;stroke-linecap:round;stroke-linejoin:round;stroke-miterlimit:4;stroke-dasharray:none;stroke-dashoffset:0;stroke-opacity:1;paint-order:markers fill stroke;color-rendering:auto;image-rendering:auto;shape-rendering:auto;text-rendering:auto;enable-background:accumulate" />
    </g>
  </g>
</svg>
