<?xml version="1.0" ?><svg style="enable-background:new 0 0 256 256;" version="1.1" viewBox="0 0 256 256" xml:space="preserve" xmlns="http://www.w3.org/2000/svg" xmlns:xlink="http://www.w3.org/1999/xlink"><style type="text/css">
	.st0{fill:#D5E2EB;}
	.st1{fill:none;stroke:#00A388;stroke-width:4;stroke-miterlimit:10;}
	.st2{fill:#FFFFFF;}
	.st3{fill:#CC4E47;}
	.st4{fill:#EA685E;}
	.st5{fill:#4B687F;}
	.st6{fill:#2C3E50;}
	.st7{fill:#3E5063;}
	.st8{fill:#FFAB80;}
	.st9{filter:url(#Adobe_OpacityMaskFilter);}
	.st10{mask:url(#SVGID_2_);}
	.st11{fill:#F09A79;}
	.st12{fill:#00886F;}
	.st13{fill:#00A388;}
	.st14{fill:none;stroke:#3E5063;stroke-width:4;stroke-miterlimit:10;}
	.st15{fill:#FFD766;}
	.st16{fill:#5488B7;}
	.st17{fill:#8C623B;}
	.st18{fill:#E6E6E6;stroke:#3E5063;stroke-width:16;stroke-miterlimit:10;}
	.st19{opacity:0.6;}
	.st20{fill:#E6E6E6;}
	.st21{fill:none;stroke:#D5E2EB;stroke-width:5;stroke-miterlimit:10;}
	.st22{fill:#FFEC9F;}
	.st23{fill:#603813;}
	.st24{filter:url(#Adobe_OpacityMaskFilter_1_);}
	.st25{mask:url(#SVGID_1_);}
</style><g id="Layer_2"><circle class="st0" cx="128" cy="128" r="120"/></g><g id="Layer_1"><g><g><g><g><path class="st4" d="M191.61272,180.40887c-0.03693,0.0247-0.06163,0.06177-0.08633,0.08633v5.23326       c0,0.61713-0.03691,1.22205-0.1234,1.82683c-0.16046,1.32059-0.50594,2.61662-1.02454,3.83853l-6.45517,15.28017       c-0.50594,1.17264-1.66606,1.95009-2.94975,1.95009h-11.99698c-1.34546,0-2.54265-0.85158-2.99933-2.12289l-6.4059-17.84738       c-0.6911-1.91316-2.75238-2.94991-4.70245-2.36984c-11.57738,3.43129-25.1172,2.13525-31.88093,1.11087       c-2.62914-0.39505-5.2209,0.88863-6.49223,3.22141l-8.92369,16.24292c-0.56786,1.01204-1.62931,1.62917-2.77708,1.62917       H90.6749c-1.76506,0-3.19669-1.43179-3.19669-3.1967v-21.22923c0-1.83904-1.14793-3.44363-2.83887-4.08548       c-0.18517-0.06178-0.38269-0.1234-0.59242-0.17282c-24.59875-5.45549-37.34877-19.25444-37.34877-19.25444H44.9578       c-1.92537,0-3.80147-0.66655-5.29488-1.90082c-1.32074-1.07381-2.20938-2.59192-2.51794-4.27049l-2.60443-13.92252       c-0.25914-1.41928,0.75303-2.75238,2.19702-2.87578l9.96058-0.80229l2.90048-5.0728       c2.87578-5.06044,6.96125-9.33094,11.8983-12.45366l2.27115-1.40723l0.04927-0.03691       c-0.48138-1.67858-1.02438-3.27083-1.59209-4.73952l-0.01236-0.04942l-3.55483-10.9726       c1.91317-0.44431,3.73985-0.70354,5.46785-0.82693c14.28034-0.98739,22.08096,7.94865,22.08096,7.94865       c0.37034-0.28386,0.74053-0.55544,1.12307-0.82693c3.88811-2.82651,7.99799-5.35674,12.26865-7.55376       c14.79878-7.60301,31.56001-11.13299,48.16091-10.1703c14.78644,0.85165,34.12737,4.87535,44.93951,15.78625       C212.06451,125.9409,209.81807,160.89528,191.61272,180.40887z"/></g></g><g><g><path class="st3" d="M156.23616,106.96413c-0.31218,0-0.62918-0.04822-0.94136-0.14825       c-2.32629-0.74369-4.77071-1.31985-7.26695-1.71037c-8.02271-1.26078-16.90962-0.70391-26.4161,1.6501       c-1.65131,0.40499-3.32672-0.59904-3.73653-2.25397c-0.40981-1.65372,0.59905-3.32672,2.25397-3.73653       c10.30923-2.55289,20.01577-3.14351,28.85448-1.75616c2.80722,0.43994,5.56383,1.08841,8.19145,1.92973       c1.62358,0.5195,2.51794,2.25639,1.99844,3.87877C158.7541,106.12762,157.54155,106.96413,156.23616,106.96413z"/></g></g><g><g><path class="st3" d="M71.50678,124.07715c-0.5555,0.18517-1.12322,0.25915-1.66622,0.25915       c-2.30807,0-4.45567-1.4687-5.1962-3.77676l-0.87627-2.71546l-1.54283-4.77644l-0.01236-0.04942l-3.55483-10.9726       c1.91317-0.44431,3.73985-0.70354,5.46785-0.82693L71.50678,124.07715z"/></g></g><g><g><circle class="st3" cx="61.9467" cy="137.3537" r="3.06789"/></g></g><g><g><path class="st4" d="M208.37408,126.46763c-0.41705,0-0.84012-0.01808-1.26682-0.05424       c-5.52403-0.46406-11.00468-4.02823-13.63956-8.86765c-0.8136-1.49702-0.26155-3.37132,1.23547-4.18612       c1.49702-0.81119,3.37012-0.26156,4.18613,1.23547c1.65613,3.04467,5.24802,5.37579,8.73505,5.66869       c1.76221,0.14946,4.25725-0.17357,6.1243-2.54808c1.88515-2.39982,2.35764-6.47626-0.16875-8.87849       c-1.02332-0.97391-2.92293-1.62238-4.43683-1.49341c-0.85699,0.0687-1.48376,0.35799-1.86224,0.85699       c-0.25191,0.33388-0.35075,0.80396-0.26878,1.29211c0.08798,0.53035,0.37607,1.00404,0.7702,1.26922       c0.10367,0.0687,0.24348,0.135,0.39053,0.19044c0.59422-0.9727,1.71278-1.58743,2.91931-1.46569       c1.69711,0.1567,2.94585,1.65855,2.78915,3.35565c-0.16393,1.77787-1.13182,3.21221-2.65535,3.93662       c-2.2359,1.0619-5.13474,0.28084-6.88367-0.89436c-1.80318-1.21015-3.0495-3.17002-3.41713-5.37458       c-0.36038-2.15514,0.16394-4.35607,1.43797-6.03631c1.44278-1.90443,3.67386-3.06998,6.27979-3.28213       c3.28212-0.25312,6.88367,0.97993,9.18947,3.17365c4.57664,4.35005,4.91293,11.88941,0.76779,17.16396       C216.07375,124.74159,212.47824,126.46763,208.37408,126.46763z"/></g></g><g><g><g><path class="st3" d="M191.61272,180.40887c-0.03693,0.0247-0.06163,0.06177-0.08633,0.08633v5.23326        c0,0.61713-0.03691,1.22205-0.1234,1.82683c-2.2588,1.27118-5.17149,0.77759-6.88728-1.28368L191.61272,180.40887z"/></g></g></g><g><g><g><path class="st3" d="M97.32759,182.70457c-0.62949,2.94991-3.53012,4.82602-6.47987,4.19653l-3.36951-0.72818v-2.11053        c0-1.83904-1.14793-3.44363-2.83887-4.08548L97.32759,182.70457z"/></g></g></g></g><g><g><ellipse class="st15" cx="138.55261" cy="60.87592" rx="21.49838" ry="21.49838" transform="matrix(0.99498 -0.10006 0.10006 0.99498 -5.39586 14.16896)"/></g><g><ellipse class="st22" cx="138.55261" cy="60.87592" rx="15.99634" ry="15.99634" transform="matrix(0.99498 -0.10006 0.10006 0.99498 -5.39586 14.16896)"/></g></g></g></g></svg>