<?xml version="1.0" ?><svg viewBox="0 0 36 36" xmlns="http://www.w3.org/2000/svg"><defs><style></style></defs><title/><g id="joy">
<path class="cls-1" fill="#ffffff" d="M6.07,16.61A15,15,0,0,1,19.5,3.08,14.76,14.76,0,0,0,18,3,15,15,0,0,0,3,17.89,10.28,10.28,0,0,1,6.07,16.61Z"/>
<path class="cls-1" fill="#ffffff" d="M8.44,26.17A4.92,4.92,0,0,1,6,26.82H5.88A15,15,0,0,0,18,33a14.76,14.76,0,0,0,1.5-.08A15,15,0,0,1,8.44,26.17Z"/>
<path class="cls-2" fill="#ffffff" d="M29,26.7a14,14,0,0,1-21.9,0,4.57,4.57,0,0,1-1,.12,5,5,0,0,1-1.49-.25,16,16,0,0,0,27,0,5,5,0,0,1-1.49.25A4.57,4.57,0,0,1,29,26.7Z"/>
<path class="cls-2" fill="#ffffff" d="M18,2A16,16,0,0,0,2,18c0,.27,0,.53,0,.8,0-.07.09-.15.15-.22A5.3,5.3,0,0,1,4,17.32a14,14,0,0,1,27.94,0,5.3,5.3,0,0,1,1.84,1.26c.06.07.1.15.15.22,0-.27,0-.53,0-.8A16,16,0,0,0,18,2Z"/>
<path class="cls-1" fill="#ffffff" d="M15,22H13a5,5,0,0,0,5,5,5.47,5.47,0,0,0,1-.1A5,5,0,0,1,15,22Z"/>
<path class="cls-2" fill="#ffffff" d="M18,28a6,6,0,0,1-6-6,1,1,0,0,1,1-1H23a1,1,0,0,1,1,1A6,6,0,0,1,18,28Zm-3.87-5a4,4,0,0,0,7.74,0Z"/>
<path class="cls-3" fill="#ffffff" d="M6,25.52a3.71,3.71,0,0,1-2.39-.88,3.65,3.65,0,0,1-1.3-2.52,3.7,3.7,0,0,1,.87-2.7c.92-1.08,3.78-1.81,6-2.11h0a.74.74,0,0,1,.51.16.69.69,0,0,1,.24.51c.07,2.2-.19,5.15-1.11,6.23A3.69,3.69,0,0,1,6,25.52Z"/>
<path class="cls-3" fill="#ffffff" d="M30,25.52a3.69,3.69,0,0,1-2.82-1.31c-.92-1.08-1.17-4-1.11-6.23a.69.69,0,0,1,.24-.51.7.7,0,0,1,.45-.17c2.28.31,5.14,1,6.06,2.12A3.71,3.71,0,0,1,30,25.52Z"/>
<path class="cls-3" fill="#ffffff" d="M10,16a.93.93,0,0,1-.45-.11,1,1,0,0,1-.44-1.34A3.76,3.76,0,0,1,15.48,14l.32.42a1,1,0,0,1-1.6,1.2l-.32-.42a1.72,1.72,0,0,0-1.57-.7,1.74,1.74,0,0,0-1.42,1A1,1,0,0,1,10,16Z"/>
<path class="cls-3" fill="#ffffff" d="M26,16a1,1,0,0,1-.89-.55,1.74,1.74,0,0,0-1.42-1,1.71,1.71,0,0,0-1.57.7l-.32.42a1,1,0,0,1-1.6-1.2l.32-.42a3.76,3.76,0,0,1,6.37.57,1,1,0,0,1-.44,1.34A.93.93,0,0,1,26,16Z"/>
</g>
</svg>