<?xml version="1.0" encoding="iso-8859-1"?>
<!-- Generator: Adobe Illustrator 19.0.0, SVG Export Plug-In . SVG Version: 6.00 Build 0)  -->
<svg version="1.1" id="Layer_1" xmlns="http://www.w3.org/2000/svg" xmlns:xlink="http://www.w3.org/1999/xlink" x="0px" y="0px"
	 viewBox="0 0 512 512" style="enable-background:new 0 0 512 512;" xml:space="preserve">
<circle style="fill:#0575A5;" cx="256" cy="256" r="256"/>
<path style="fill:#025E90;" d="M511.685,268.283l-91.121-91.133H135.017v81.948c-2.012-0.366-4.099-0.54-6.218-0.54
	c-20.662,0-37.373,16.707-37.373,37.332v1.541c0,9.065,3.182,17.334,8.522,23.772c0.036,0.036,0.036,0.069,0.036,0.069l4.972,4.938
	c0,0,0.036,0.077,0.069,0.077l183.555,183.578C410.588,494.351,505.792,393.042,511.685,268.283z"/>
<rect x="135.007" y="177.152" style="fill:#FFFFFF;" width="285.568" height="157.67"/>
<rect x="142.259" y="184.422" style="fill:#CEE2F2;" width="271.053" height="143.158"/>
<rect x="142.259" y="213.043" style="fill:#B8D1E6;" width="271.053" height="85.906"/>
<g>
	<rect x="153.27" y="195.866" style="fill:#FFFFFF;" width="40.64" height="5.737"/>
	<rect x="153.27" y="310.4" style="fill:#FFFFFF;" width="27.971" height="5.737"/>
	<rect x="187.878" y="310.4" style="fill:#FFFFFF;" width="27.976" height="5.737"/>
	<rect x="222.541" y="310.4" style="fill:#FFFFFF;" width="27.983" height="5.737"/>
	<rect x="257.178" y="310.4" style="fill:#FFFFFF;" width="27.986" height="5.737"/>
	<rect x="200.243" y="195.866" style="fill:#FFFFFF;" width="20.324" height="5.737"/>
	<rect x="290.79" y="224.922" style="fill:#FFFFFF;" width="110.822" height="14.331"/>
</g>
<g>
	<rect x="153.17" y="238.106" style="fill:#5D6D7E;" width="127.398" height="1.152"/>
	<rect x="153.958" y="255.411" style="fill:#5D6D7E;" width="247.68" height="1.147"/>
	<rect x="153.958" y="272.717" style="fill:#5D6D7E;" width="247.68" height="1.157"/>
	<rect x="153.958" y="290.074" style="fill:#5D6D7E;" width="247.68" height="1.157"/>
	<rect x="296.909" y="314.982" style="fill:#5D6D7E;" width="104.694" height="1.152"/>
</g>
<g>
	<path style="fill:#283A4D;" d="M347.133,296.53c3.246-1.234,6.482-2.737,9.426-4.6c2.45-1.546,4.81-3.722,6.019-6.405
		c0.387-0.878,0.684-2.143-0.261-2.76c-1.044-0.701-2.796,0.584-3.579,1.216c-2.852,2.345-4.544,6.047-5.796,9.434
		c-1.321,3.464-2.22,7.073-3.735,10.465c-1.664,3.763-3.617,7.478-6.147,10.788c-1.6,2.112-3.377,4.419-6.088,5.45
		c-3.069,1.116-4.524-0.451-4.524,0.005c4.247,2.312,8.525-1.999,10.877-5.076c2.514-3.238,4.475-6.917,6.152-10.688
		c1.51-3.287,2.437-6.784,3.645-10.204c1.265-3.633,3.054-7.48,6.098-9.969c0.666-0.548,1.539-1.08,2.429-1.129
		c1.024-0.044,0.899,1.203,0.681,1.841c-0.497,1.603-1.782,3.036-2.908,4.221c-2.15,2.189-5.023,3.658-7.759,4.972
		c-3.617,1.766-7.488,3.131-11.441,4.014c-3.346,0.737-4.454,0.499-4.439,0.701C336.092,299.318,343.496,297.884,347.133,296.53z"/>
	<path style="fill:#283A4D;" d="M350.321,309.581c1.405,0.991,1.615,3.021,0.978,4.516c-1.06,2.488-4.544,3.098-6.917,2.957
		c-1.615-0.136-3.174-0.773-4.096-2.115c-1.249-1.848-0.323-3.884,1.024-5.358c1.341-1.454,3.069-2.353,4.879-3.146
		c2.271-0.963,4.544-1.887,6.848-2.849c3.686-1.546,7.398-3.141,10.783-5.297c1.257-0.819,2.36-1.766,3.264-2.982
		c0.64-0.865,1.39-2.312,0.632-3.31c-0.479-0.617-1.329-0.479-1.969-0.261c-1.313,0.535-2.368,1.692-3.256,2.739
		c-1.94,2.268-3.054,4.859-4.227,7.565c-2.452,5.66-4.447,11.674-8.323,16.581c-0.806,0.986-1.672,1.925-2.627,2.767
		c-0.701,0.617-1.864,1.572-2.88,1.249c-0.632-0.225-0.863-1.119-0.911-1.684c-0.077-0.998,0.451-1.953,1.083-2.67
		c1.321-1.51,3.172-2.268,5.117-2.284c0.881-0.005,1.769,0.177,2.46,0.724c0.714,0.556,1.277,1.551,0.392,2.248
		c0.133,0.013,0.246,0.028,0.392,0.044c-0.561-1.229,1.595-1.897,2.429-1.969c0.535-0.092,1.16,0.015,1.61,0.392
		c0.489,0.458,0.338,1.357-0.443,1.357c-0.353,0,0.3-0.781,0.351-0.829c0.274-0.287,0.66-0.497,0.998-0.701
		c0.676-0.374,1.841-0.975,2.606-0.54c0.302,0.141,0.31,0.596,0.694,0.637c0.212,0.023,0.422-0.028,0.586-0.133
		c0.568-0.261,1.088-0.512,1.705-0.596c0.85-0.069,1.61,0.12,2.452-0.141c0.968-0.294,1.946-0.758,2.877-1.165
		c0.886-0.374,1.441,0.758,2.304,0.827c0.492,0.051,1.011-0.008,1.539-0.061c0.604-0.097,1.216-0.008,1.828,0.015
		c0.996,0.049,1.93-0.084,2.885-0.402c1.195-0.366,2.317-0.827,3.581-0.94c2.324-0.128,4.669-0.415,6.945-0.906
		c0.878-0.148,1.728-0.387,2.586-0.64c0.294-0.069,0.148-0.512-0.141-0.435c-2.388,0.681-4.854,1.096-7.368,1.354
		c-1.052,0.128-2.15,0.133-3.187,0.31c-1.124,0.223-2.15,0.75-3.259,1.044c-1.075,0.302-2.232,0.097-3.331,0.084
		c-0.525-0.008-1.052,0.09-1.58,0.12c-0.689,0.036-1.221-0.402-1.748-0.732c-0.189-0.11-0.571-0.366-0.801-0.307
		c-0.143,0.036-0.33,0.21-0.466,0.279c-0.271,0.12-0.584,0.241-0.878,0.338c-1.088,0.399-2.066,0.947-3.246,0.919
		c-0.701-0.015-1.39-0.054-2.084,0.246c-0.197,0.084-1.019,0.655-1.224,0.379c-0.097-0.174-0.166-0.323-0.351-0.463
		c-1.039-0.753-2.775,0.218-3.681,0.814c-0.448,0.294-1.805,1.539-0.863,2.043c0.758,0.374,1.487-0.52,1.475-1.196
		c-0.085-2.752-6.354-1.367-5.233,1.229c0.054,0.141,0.266,0.12,0.358,0.051c1.316-1.014,0.287-2.452-0.75-3.182
		c-1.329-0.94-3.653-0.681-5.092-0.133c-2.296,0.899-5.422,4.052-3.412,6.638c1.375,1.697,3.968-0.829,4.915-1.769
		c1.974-1.94,3.331-4.25,4.769-6.566c1.608-2.67,2.632-5.624,3.827-8.471c1.129-2.706,2.189-5.458,3.574-8.013
		c0.855-1.574,1.979-3.062,3.308-4.301c0.637-0.609,2.022-1.882,3.067-1.434c0.586,0.266,0.474,1.096,0.338,1.587
		c-0.253,0.842-0.899,1.638-1.495,2.284c-1.152,1.257-2.634,2.122-4.073,2.964c-3.773,2.156-7.826,3.758-11.807,5.391
		c-3.561,1.503-7.639,2.698-9.946,6.039c-1.974,2.803-0.287,6.103,2.836,6.94c2.255,0.602,5.066,0.218,7.03-1.039
		c1.848-1.188,2.724-3.645,1.638-5.632c-1.341-2.578-4.954-2.606-6.925-0.87C344.548,309.944,347.581,307.663,350.321,309.581z"/>
</g>
<path style="fill:#CEDEEB;" d="M323.686,334.822H135.014v-75.776c2.509,0.435,4.941,1.101,7.245,1.994v66.534h174.185
	L323.686,334.822z"/>
<path style="fill:#A6C5DF;" d="M304.998,316.134h-8.061v-1.152h6.912l-16.028-16.026H142.259v28.621h174.185L304.998,316.134z
	 M181.248,316.134h-27.981V310.4h27.981V316.134z M215.859,316.134h-27.981V310.4h27.981V316.134z M250.522,316.134h-27.981V310.4
	h27.981V316.134z M285.184,316.134h-28.006V310.4h28.006V316.134z"/>
<g>
	<rect x="187.878" y="310.4" style="fill:#CEDEEB;" width="27.981" height="5.734"/>
	<rect x="222.541" y="310.4" style="fill:#CEDEEB;" width="27.981" height="5.734"/>
</g>
<path style="fill:#95B6D4;" d="M287.821,298.957H142.259v-37.914c3.302,1.254,6.349,2.97,9.114,5.069h5.248v-6.426l-10.778-10.778
	v-17.178h74.752l6.374,6.374h-73.805v1.152h74.957l16.154,16.154h-90.317v1.152h91.469l16.179,16.179H153.958v1.152h108.8
	l16.179,16.177H153.958v1.152H280.09L287.821,298.957z"/>
<g>
	<polygon style="fill:#34495E;" points="228.122,239.258 153.165,239.258 153.165,238.106 226.97,238.106 	"/>
	<polygon style="fill:#34495E;" points="245.427,256.563 153.958,256.563 153.958,255.411 244.275,255.411 	"/>
	<polygon style="fill:#34495E;" points="262.758,273.894 153.958,273.894 153.958,272.742 261.606,272.742 	"/>
	<polygon style="fill:#34495E;" points="280.09,291.226 153.958,291.226 153.958,290.074 278.938,290.074 	"/>
</g>
<rect x="257.178" y="310.4" style="fill:#CEDEEB;" width="28.006" height="5.734"/>
<polygon style="fill:#34495E;" points="304.998,316.134 296.934,316.134 296.934,314.982 303.846,314.982 "/>
<rect x="153.267" y="310.4" style="fill:#CEDEEB;" width="27.981" height="5.734"/>
<rect x="143.974" y="319.206" style="fill:#FF8E31;" width="74.752" height="15.626"/>
<rect x="143.974" y="317.645" style="fill:#F28124;" width="74.752" height="15.639"/>
<g>
	<rect x="137.838" y="302.029" style="fill:#FF8E31;" width="74.726" height="15.613"/>
	<rect x="137.838" y="300.467" style="fill:#FF8E31;" width="74.726" height="15.621"/>
	<rect x="153.626" y="284.851" style="fill:#FF8E31;" width="74.778" height="15.626"/>
</g>
<rect x="153.626" y="283.29" style="fill:#FF9D4D;" width="74.778" height="15.621"/>
<rect x="146.586" y="267.648" style="fill:#F28124;" width="74.752" height="15.626"/>
<g>
	<rect x="146.586" y="266.086" style="fill:#FF8E31;" width="74.752" height="15.626"/>
	<rect x="156.595" y="250.496" style="fill:#FF8E31;" width="74.752" height="15.616"/>
</g>
<rect x="156.595" y="248.909" style="fill:#FF9D4D;" width="74.752" height="15.626"/>
<rect x="145.843" y="233.293" style="fill:#F28124;" width="74.752" height="15.624"/>
<rect x="145.843" y="231.731" style="fill:#FF8E31;" width="74.752" height="15.621"/>
<g>
	<path style="fill:#EB7425;" d="M153.293,267.648h-6.707v-1.536h4.813C152.064,266.598,152.678,267.11,153.293,267.648z"/>
	<path style="fill:#EB7425;" d="M167.475,281.728h-20.89v-14.08h6.707c0.205,0.179,0.41,0.361,0.614,0.538
		c0.102,0.054,0.179,0.128,0.23,0.205l2.099,2.15c0.102,0.077,0.179,0.131,0.256,0.205L167.475,281.728z"/>
</g>
<polygon style="fill:#E06A1C;" points="169.037,283.29 146.586,283.29 146.586,281.728 167.475,281.728 "/>
<g>
	<polygon style="fill:#ED8139;" points="170.598,284.851 153.626,284.851 153.626,283.29 169.037,283.29 	"/>
	<polygon style="fill:#ED8139;" points="184.653,298.906 153.626,298.906 153.626,284.851 170.598,284.851 	"/>
</g>
<g>
	<polygon style="fill:#ED7425;" points="186.214,300.467 153.626,300.467 153.626,298.906 184.653,298.906 	"/>
	<polygon style="fill:#ED7425;" points="187.75,302.029 137.83,302.029 137.83,300.467 186.214,300.467 	"/>
	<polygon style="fill:#ED7425;" points="201.805,316.083 137.83,316.083 137.83,302.029 187.75,302.029 	"/>
	<polygon style="fill:#ED7425;" points="203.366,317.645 137.83,317.645 137.83,316.083 201.805,316.083 	"/>
</g>
<g>
	<polygon style="fill:#E16A1B;" points="204.928,319.206 143.974,319.206 143.974,317.645 203.366,317.645 	"/>
	<polygon style="fill:#E16A1B;" points="218.701,332.979 218.701,333.286 143.974,333.286 143.974,319.206 204.928,319.206 	"/>
</g>
<rect x="143.974" y="333.286" style="fill:#ED7425;" width="74.726" height="1.536"/>
<path style="fill:#FF8E31;" d="M166.162,297.441c0,20.649-16.714,37.391-37.348,37.391c-20.669,0-37.386-16.742-37.386-37.391
	c0-20.634,16.714-37.348,37.386-37.348C149.445,260.096,166.162,276.81,166.162,297.441z"/>
<path style="fill:#FF9D4D;" d="M166.162,295.885c0,20.641-16.714,37.396-37.348,37.396c-20.669,0-37.386-16.758-37.386-37.396
	c0-20.636,16.714-37.348,37.386-37.348C149.445,258.537,166.162,275.251,166.162,295.885z"/>
<path style="fill:#FF8E31;" d="M128.812,323.878c-15.46,0-27.981-12.557-27.981-27.994c0-15.421,12.521-27.988,27.981-27.988
	c15.419,0,27.983,12.564,27.983,27.988C156.797,311.319,144.23,323.878,128.812,323.878z"/>
<path style="fill:#F28124;" d="M103.803,298.89c0-15.414,12.562-27.988,27.981-27.988c6.968,0,13.338,2.57,18.24,6.792
	c-5.14-5.978-12.746-9.797-21.21-9.797c-15.46,0-27.981,12.564-27.981,27.988c0,8.489,3.791,16.09,9.738,21.21
	C106.388,312.192,103.803,305.866,103.803,298.89z"/>
<g>
</g>
<g>
</g>
<g>
</g>
<g>
</g>
<g>
</g>
<g>
</g>
<g>
</g>
<g>
</g>
<g>
</g>
<g>
</g>
<g>
</g>
<g>
</g>
<g>
</g>
<g>
</g>
<g>
</g>
</svg>
