<?xml version="1.0" encoding="UTF-8"?>
<svg id="Capa_1" data-name="Capa 1" xmlns="http://www.w3.org/2000/svg" viewBox="0 0 1080 1080">
  <defs>
    <style>
      .cls-1 {
        fill: #a8a8a8;
      }
    </style>
  </defs>
  <path class="cls-1" d="m951.28,508.72c-48.38-41.34-96.74-82.71-145.28-123.86-4.42-3.75-6-7.45-5.98-13.19.23-54.87.17-109.73.12-164.6-.01-14.88-6.71-23.24-20.46-23.49-27.7-.52-55.42-.46-83.12-.04-12.9.2-19.85,8.01-19.98,21.2-.2,20.02-.04,40.05-.08,60.08,0,2.6-.23,5.19-.4,8.84-2.63-1.95-4.4-3.11-5.99-4.47-37.79-32.2-75.56-64.42-113.32-96.66-13.1-11.18-20.1-11.26-33.13-.16-131.34,111.89-262.69,223.76-393.91,335.78-4.43,3.78-7.48,9.18-11.17,13.82v8.23c4.42,8.69,10.58,15.41,21.18,12.93,5.02-1.17,9.9-4.56,13.94-8,126.86-107.84,253.6-215.81,380.38-323.74,2-1.7,4.16-3.21,6.23-4.8,2.4,1.94,4.13,3.27,5.79,4.69,126.97,108.13,253.94,216.26,380.93,324.37,2.49,2.12,5.12,4.2,7.97,5.77,9.32,5.16,20.47,1.27,24.77-8.44,3.74-8.44,1.15-16.01-8.49-24.24Zm-188.15-160.94c-3.47-2.82-6.32-5.07-9.1-7.41-12.19-10.23-24.45-20.36-36.43-30.83-2.2-1.92-4.51-5.2-4.55-7.87-.33-26.06-.19-52.13-.13-78.19,0-1,.57-2.01.89-3.04h49.32v127.34Z"/>
  <path class="cls-1" d="m872.37,546.52c-105.69-90.36-211.4-180.7-317.15-270.99-11.13-9.51-18.94-9.56-29.89-.22-105.75,90.29-211.45,180.64-317.15,270.99-1.45,1.24-2.84,2.58-4.08,4.04-6.36,7.5-6.57,17.04-.6,24,5.87,6.84,15.95,8.33,23.76,2.59,7.83-5.76,15.02-12.4,24.05-19.96v11.45c0,106.7,0,213.41.03,320.11,0,4.1-.06,8.3.75,12.28,1.63,8.01,6.74,13.06,14.84,14.53,3.47.63,7.1.58,10.66.58,175,.02,350.01.02,525.01.01,2.74,0,5.5.03,8.22-.24,10.19-1.02,16.53-7.24,17.61-17.34.35-3.26.3-6.57.3-9.86.01-106.7.01-213.41.01-320.11v-11.54c8.63,7.32,15.42,13.56,22.71,19.15,10.65,8.16,23.78,4.73,28.52-7.05,3.12-7.76.72-15.31-7.6-22.42Zm-259.97,332.33h-144.28v-194.95h144.28v194.95Zm180.2-8.45v8.54h-143.55v-10.06c0-65.01,0-130.02,0-195.03,0-21.83-4.93-26.82-26.41-26.82-54.86,0-109.72,0-164.58,0-21.86,0-26.8,4.86-26.8,26.43,0,65.01,0,130.02,0,195.03v10.62h-143.52v-9.05c0-112.19-.05-224.38.2-336.57,0-4.02,1.88-9.37,4.8-11.87,81.43-69.77,163.11-139.26,244.75-208.79.62-.53,1.32-.97,2.6-1.91,1.95,1.51,4.11,3.05,6.12,4.76,80.38,68.47,160.72,136.99,241.21,205.34,4.05,3.44,5.26,6.96,5.25,11.98-.11,112.46-.08,224.93-.08,337.39Z"/>
</svg>