<svg xmlns="http://www.w3.org/2000/svg" xmlns:xlink="http://www.w3.org/1999/xlink" width="64px" height="64px" viewBox="0 0 64 64" version="1.1">
<g id="surface1">
<path style=" stroke:none;fill-rule:nonzero;fill:#ffffff;fill-opacity:1;" d="M 60.179688 31.976562 C 59.835938 30.796875 59.132812 29.902344 58 29.417969 C 57.519531 29.214844 56.976562 29.109375 56.453125 29.066406 C 55.816406 29.015625 55.34375 29.492188 55.3125 30.09375 C 55.28125 30.714844 55.667969 31.15625 56.324219 31.246094 C 56.46875 31.265625 56.613281 31.28125 56.757812 31.3125 C 57.554688 31.496094 58.105469 32.191406 58.089844 32.988281 C 58.074219 33.796875 57.457031 34.550781 56.640625 34.621094 C 55.878906 34.6875 55.109375 34.632812 54.316406 34.632812 C 54.265625 34.132812 54.230469 33.675781 54.171875 33.21875 C 54.109375 32.765625 54.046875 32.308594 53.949219 31.859375 C 52.671875 25.847656 49.367188 21.300781 44.054688 18.21875 C 43.78125 18.058594 43.746094 17.898438 43.746094 17.605469 C 43.75 16.578125 43.832031 15.53125 43.660156 14.527344 C 42.730469 9.132812 38.648438 5.3125 33.214844 4.660156 C 27.269531 3.953125 21.449219 8.25 20.410156 14.148438 C 20.234375 15.128906 20.199219 16.136719 20.097656 17.171875 C 18.554688 16.28125 17.015625 15.386719 15.472656 14.496094 C 13.792969 13.53125 12.226562 14.4375 12.222656 16.375 C 12.21875 18.496094 12.230469 20.613281 12.214844 22.734375 C 12.210938 22.988281 12.132812 23.289062 11.984375 23.484375 C 10.753906 25.113281 9.765625 26.867188 9.070312 28.785156 C 8.96875 29.074219 8.824219 29.1875 8.515625 29.183594 C 7.851562 29.167969 7.1875 29.152344 6.527344 29.207031 C 4.914062 29.335938 3.726562 30.597656 3.714844 32.207031 C 3.691406 34.566406 3.695312 36.925781 3.710938 39.28125 C 3.722656 40.9375 4.957031 42.210938 6.617188 42.308594 C 7.222656 42.347656 7.832031 42.34375 8.441406 42.320312 C 8.785156 42.308594 8.957031 42.410156 9.085938 42.753906 C 10.472656 46.472656 12.777344 49.511719 15.933594 51.914062 C 16.117188 52.050781 16.261719 52.355469 16.265625 52.585938 C 16.292969 54.058594 16.269531 55.53125 16.285156 57.007812 C 16.300781 58.425781 17.28125 59.398438 18.691406 59.410156 C 20.015625 59.417969 21.34375 59.414062 22.671875 59.410156 C 23.640625 59.402344 24.367188 58.96875 24.824219 58.117188 C 25.175781 57.46875 25.515625 56.816406 25.832031 56.152344 C 25.972656 55.855469 26.152344 55.796875 26.472656 55.796875 C 29.53125 55.816406 32.585938 55.820312 35.640625 55.800781 C 35.980469 55.796875 36.179688 55.839844 36.328125 56.167969 C 36.621094 56.800781 36.964844 57.414062 37.28125 58.035156 C 37.757812 58.960938 38.519531 59.414062 39.558594 59.410156 C 40.773438 59.40625 41.988281 59.410156 43.203125 59.410156 C 44.964844 59.410156 45.882812 58.488281 45.886719 56.710938 C 45.890625 55.367188 45.902344 54.019531 45.875 52.675781 C 45.867188 52.28125 46.011719 52.046875 46.316406 51.808594 C 50.480469 48.613281 53.058594 44.433594 54.007812 39.265625 C 54.15625 38.476562 54.230469 37.675781 54.34375 36.859375 C 55.082031 36.859375 55.78125 36.875 56.480469 36.855469 C 57.601562 36.820312 58.605469 36.425781 59.285156 35.535156 C 59.730469 34.953125 59.972656 34.214844 60.304688 33.546875 L 60.304688 32.332031 C 60.261719 32.210938 60.214844 32.09375 60.179688 31.976562 Z M 25.699219 9.164062 C 29.265625 6.042969 34.695312 6.027344 38.257812 9.117188 C 42.101562 12.453125 42.433594 17.730469 40.386719 21.0625 C 38.699219 20.460938 37.03125 19.863281 35.359375 19.261719 C 36.234375 16.644531 34.859375 14.621094 31.992188 14.410156 C 31.761719 14.394531 31.515625 14.339844 31.304688 14.242188 C 30.851562 14.042969 30.554688 13.703125 30.5625 13.179688 C 30.566406 12.65625 30.878906 12.328125 31.324219 12.121094 C 32.300781 11.671875 33.277344 12.203125 33.460938 13.269531 C 33.570312 13.910156 34.050781 14.335938 34.628906 14.296875 C 35.242188 14.253906 35.683594 13.761719 35.652344 13.085938 C 35.585938 11.65625 34.824219 10.6875 33.554688 10.097656 C 33.421875 10.039062 32.703125 9.75 32 9.738281 C 31.304688 9.730469 30.628906 9.992188 30.542969 10.03125 C 28.96875 10.757812 28.105469 12.21875 28.382812 13.746094 C 28.667969 15.328125 30.0625 16.484375 31.792969 16.628906 C 32.183594 16.660156 32.613281 16.742188 32.9375 16.941406 C 33.632812 17.367188 33.617188 18.25 32.960938 18.746094 C 32.011719 19.457031 30.75 18.941406 30.546875 17.757812 C 30.429688 17.089844 29.9375 16.683594 29.320312 16.75 C 28.726562 16.8125 28.3125 17.289062 28.359375 17.949219 C 28.394531 18.417969 28.535156 18.878906 28.613281 19.277344 C 26.980469 19.867188 25.3125 20.46875 23.628906 21.078125 C 21.589844 17.785156 21.878906 12.507812 25.699219 9.164062 Z M 44.609375 50.316406 C 43.933594 50.800781 43.628906 51.3125 43.660156 52.144531 C 43.714844 53.617188 43.675781 55.089844 43.671875 56.5625 C 43.671875 56.761719 43.652344 56.960938 43.636719 57.199219 C 42.246094 57.199219 40.90625 57.210938 39.5625 57.183594 C 39.421875 57.179688 39.234375 56.980469 39.152344 56.828125 C 38.699219 55.988281 38.273438 55.128906 37.832031 54.28125 C 37.488281 53.621094 37.179688 53.515625 36.457031 53.519531 C 32.871094 53.539062 29.28125 53.539062 25.691406 53.519531 C 24.96875 53.515625 24.664062 53.617188 24.320312 54.28125 C 23.878906 55.128906 23.453125 55.988281 23 56.828125 C 22.917969 56.980469 22.730469 57.179688 22.585938 57.183594 C 21.246094 57.210938 19.90625 57.199219 18.519531 57.199219 C 18.507812 56.949219 18.492188 56.753906 18.488281 56.554688 C 18.488281 55.007812 18.472656 53.460938 18.496094 51.914062 C 18.503906 51.285156 18.285156 50.839844 17.761719 50.472656 C 14.417969 48.140625 12.113281 45.03125 10.863281 41.148438 C 10.601562 40.339844 10.304688 40.125 9.449219 40.121094 C 8.621094 40.113281 7.789062 40.125 6.960938 40.113281 C 6.21875 40.105469 5.921875 39.804688 5.917969 39.074219 C 5.910156 38.359375 5.914062 37.644531 5.914062 36.859375 C 6.40625 36.859375 6.863281 36.863281 7.316406 36.859375 C 8.066406 36.847656 8.566406 36.398438 8.566406 35.75 C 8.5625 35.097656 8.070312 34.660156 7.308594 34.652344 C 6.871094 34.644531 6.429688 34.648438 5.933594 34.648438 C 5.933594 33.777344 5.886719 32.933594 5.949219 32.097656 C 5.988281 31.582031 6.414062 31.386719 6.914062 31.386719 C 7.777344 31.386719 8.644531 31.390625 9.511719 31.382812 C 10.296875 31.375 10.609375 31.15625 10.847656 30.40625 C 11.535156 28.21875 12.613281 26.25 14.03125 24.449219 C 14.269531 24.148438 14.410156 23.6875 14.414062 23.296875 C 14.453125 21.25 14.433594 19.207031 14.433594 17.160156 L 14.433594 16.449219 C 16.054688 17.386719 17.554688 18.277344 19.082031 19.125 C 19.511719 19.363281 20.007812 19.472656 20.589844 19.683594 C 20.917969 20.476562 21.320312 21.433594 21.722656 22.398438 C 21.128906 22.925781 20.511719 23.445312 19.921875 23.996094 C 19.316406 24.5625 19.265625 25.191406 19.746094 25.6875 C 20.214844 26.175781 20.859375 26.144531 21.449219 25.582031 C 24.519531 22.65625 28.179688 21.203125 32.410156 21.300781 C 36.183594 21.386719 39.480469 22.742188 42.273438 25.289062 C 42.449219 25.449219 42.613281 25.628906 42.804688 25.773438 C 43.292969 26.152344 43.898438 26.109375 44.300781 25.683594 C 44.703125 25.257812 44.738281 24.628906 44.296875 24.1875 C 43.738281 23.632812 43.117188 23.136719 42.523438 22.613281 C 42.441406 22.542969 42.355469 22.472656 42.261719 22.394531 C 42.578125 21.699219 42.890625 21.015625 43.253906 20.222656 C 44.089844 20.839844 44.945312 21.398438 45.722656 22.054688 C 54.683594 29.613281 54.140625 43.5 44.609375 50.316406 Z M 44.609375 50.316406 "/>
<path style=" stroke:none;fill-rule:nonzero;fill:#ffffff;fill-opacity:1;" d="M 17.34375 28.023438 C 16.738281 28.042969 16.277344 28.53125 16.289062 29.140625 C 16.296875 29.75 16.78125 30.230469 17.382812 30.226562 C 17.972656 30.222656 18.476562 29.71875 18.480469 29.128906 C 18.484375 28.519531 17.957031 28.003906 17.34375 28.023438 Z M 17.34375 28.023438 "/>
</g>
</svg>