<?xml version="1.0" encoding="utf-8"?>
<!-- Generator: Adobe Illustrator 16.0.0, SVG Export Plug-In . SVG Version: 6.00 Build 0)  -->
<!DOCTYPE svg PUBLIC "-//W3C//DTD SVG 1.1//EN" "http://www.w3.org/Graphics/SVG/1.1/DTD/svg11.dtd">
<svg version="1.1" xmlns="http://www.w3.org/2000/svg" xmlns:xlink="http://www.w3.org/1999/xlink" x="0px" y="0px" width="512px"
	 height="512px" viewBox="0 0 512 512" enable-background="new 0 0 512 512" xml:space="preserve">
<g id="Layer_1">
	<g>
		<path fill-rule="evenodd" clip-rule="evenodd" fill="#E9E9EB" d="M23.182,15.423h465.64c8.347,0,15.172,6.833,15.172,15.18
			v258.121c0,8.346-6.825,15.179-15.172,15.179H23.182c-8.346,0-15.175-6.833-15.175-15.179V30.603
			C8.007,22.256,14.836,15.423,23.182,15.423"/>
		<rect x="40.478" y="34.308" fill-rule="evenodd" clip-rule="evenodd" fill="#D4D8DD" width="431.046" height="250.71"/>
		<path fill-rule="evenodd" clip-rule="evenodd" fill="#E9E9EB" d="M116.882,63.109h278.24c0,25.039,20.491,45.53,45.531,45.53
			v102.046c-25.04,0-45.531,20.491-45.531,45.531h-278.24c0-25.04-20.492-45.531-45.53-45.531V108.64
			C96.39,108.64,116.882,88.148,116.882,63.109"/>
		<path fill="#ABB0B7" d="M261.327,194.887c3.64-0.778,6.602-2.502,8.872-5.168c2.299-2.652,3.431-5.78,3.438-9.42
			c0-3.208-0.959-6.004-2.883-8.325c-1.904-2.364-5.032-4.144-9.413-5.42L261.327,194.887z M250.854,117.786
			c-2.84,1.002-5.067,2.652-6.725,4.966c-1.658,2.321-2.472,4.857-2.472,7.655c0,2.537,0.742,4.915,2.249,7.113
			c1.499,2.184,3.826,3.972,6.933,5.305L250.854,117.786z M250.812,193.668l0.014-30.265c-9.406-2.717-16.29-6.818-20.664-12.289
			c-4.39-5.507-6.581-12.124-6.573-19.93c0-7.907,2.493-14.538,7.46-19.886c4.966-5.369,11.568-8.425,19.813-9.219l0.007-7.113
			l10.516,0.036v7.113c7.704,0.93,13.831,3.575,18.4,7.915c4.541,4.331,7.445,10.119,8.7,17.363l-18.372,2.314
			c-1.133-5.688-4.044-9.55-8.742-11.591l-0.016,28.233c11.634,3.142,19.561,7.243,23.765,12.224
			c4.209,5.002,6.307,11.417,6.307,19.215c-0.008,8.714-2.653,16.052-7.966,22.005c-5.317,5.954-12.685,9.636-22.141,11.093
			l-0.008,13.485l-10.522-0.036l0.006-13.341c-8.295-1.038-15.027-4.123-20.247-9.298c-5.204-5.182-8.511-12.505-9.96-21.918
			l18.818-2.155c0.765,3.85,2.221,7.164,4.339,9.961C245.873,190.389,248.216,192.393,250.812,193.668z"/>
		<path opacity="0.25" fill-rule="evenodd" clip-rule="evenodd" fill="#272323" d="M77.341,299.621l119.618-119.604l0.159-0.159
			l0.155-0.151l0.169-0.144l0.167-0.145l0.168-0.137l0.177-0.122l0.166-0.13h0.011l0.18-0.115l0.177-0.115l0.176-0.115l0.191-0.102
			l0.188-0.108l0.188-0.093l0.188-0.094l0.19-0.087l0.198-0.072l0.198-0.079l0.188-0.072l0.198-0.064l0.198-0.065l0.202-0.051h0.008
			l0.2-0.051l0.199-0.058l0.209-0.035l0.198-0.036l0.209-0.029l0.198-0.035l0.209-0.015l0.209-0.015l0.208-0.021h0.199l0.213-0.008
			l0.208,0.008h0.209l0.198,0.021h0.011l0.198,0.015l0.209,0.015l0.209,0.035l0.198,0.029l0.208,0.036l0.199,0.035l0.209,0.058
			l0.202,0.051l0.194,0.051l0.202,0.065l0.202,0.064l0.195,0.072l0.202,0.079l0.187,0.072l0.195,0.087l0.188,0.094l0.194,0.093
			l0.188,0.108l0.173,0.102l0.188,0.115l0.181,0.115l0.179,0.115l0.181,0.13l0.166,0.122l0.166,0.137l0.18,0.145l0.152,0.144
			l0.173,0.151l0.151,0.159l30.474,30.467l52.566,52.565l76.883-76.877l-28.01-28.009c-8.9-8.895,3.107-12.238,12.031-12.238
			l39.592-0.707l51.015-0.886c4.635-0.115,7.72,0.771,9.637,2.595c1.824,1.924,2.711,5.002,2.596,9.637l-0.887,51.016l-0.692,39.592
			c0,8.923-3.352,20.931-12.238,12.044l-30.381-30.38l-75.066,75.068h-88.951l-44.662-44.659l-44.659,44.659H75.02
			C75.355,302.331,76.126,300.839,77.341,299.621"/>
		<rect x="119.026" y="350.694" fill-rule="evenodd" clip-rule="evenodd" fill="#5385C5" width="62" height="145.883"/>
		<rect x="225.108" y="376.548" fill-rule="evenodd" clip-rule="evenodd" fill="#DB4A50" width="62" height="120.029"/>
		<polygon fill-rule="evenodd" clip-rule="evenodd" fill="#ECB018" points="331.213,315.896 331.213,496.577 393.212,496.577 
			393.212,305.639 355.041,305.639 331.213,305.639 		"/>
		<path fill-rule="evenodd" clip-rule="evenodd" fill="#499B5A" d="M62.353,299.88l119.615-119.604l0,0l0.159-0.159l0,0l0.158-0.151
			h0.003l0.163-0.145l0,0l0.169-0.137l0.17-0.137l0,0l0.172-0.13l0,0l0.173-0.123h0.004l0.176-0.122l0.181-0.115h0.004l0.176-0.109
			l0.184-0.108h0.004l0.184-0.101h0.003l0.187-0.094l0.188-0.094h0.003l0.19-0.086l0,0l0.194-0.08l0.195-0.079l0.194-0.072h0.003
			l0.199-0.064l0.198-0.065l0.198-0.051h0.003l0.202-0.05l0,0l0.202-0.051l0.201-0.043l0.206-0.037l0.206-0.028l0.205-0.029
			l0.206-0.021l0.209-0.015l0.205-0.015l0.206-0.007h0.209h0.205l0.209,0.007l0.202,0.015h0.004l0.208,0.015l0.202,0.021
			l0.206,0.029l0.205,0.028l0.206,0.037l0.202,0.043l0.206,0.051l0.202,0.05l0.198,0.051l0.202,0.065l0.198,0.064l0.194,0.072
			l0.198,0.079l0.195,0.08l0.191,0.086l0.188,0.094l0.19,0.094l0.188,0.101l0.184,0.108l0.181,0.109l0.179,0.115l0.181,0.122
			l0.173,0.123l0.178,0.13l0.169,0.137l0.169,0.137l0.163,0.145l0.162,0.151l0.158,0.159l30.471,30.467l52.573,52.572l76.876-76.884
			l-28.017-28.016c-8.886-8.887,3.121-12.238,12.039-12.238l39.598-0.692l51.016-0.887c4.627-0.122,7.713,0.772,9.629,2.595
			c1.825,1.917,2.718,5.002,2.596,9.629l-0.888,51.016l-0.698,39.599c0,8.916-3.345,20.924-12.238,12.038l-30.365-30.373
			l-82.976,82.975l-30.475,30.474l-0.166,0.151l-0.157,0.151l-0.166,0.145l-0.165,0.144l-0.175,0.13l-0.173,0.129l-0.173,0.122
			l-0.18,0.123l-0.181,0.116l-0.181,0.115l-0.187,0.101l-0.188,0.102l-0.187,0.101l-0.188,0.086l-0.194,0.087l-0.194,0.079
			l-0.193,0.08l-0.197,0.072l-0.201,0.065l-0.193,0.065l-0.203,0.05l-0.201,0.058l-0.201,0.044l-0.201,0.043l-0.209,0.036
			l-0.203,0.029L278.229,345l-0.202,0.022l-0.21,0.014l0,0l-0.201,0.014l-0.209,0.008l-0.209,0.007l-0.209-0.007l-0.209-0.008
			l-0.202-0.014l-0.208-0.014L276.167,345l-0.209-0.028l-0.208-0.029l-0.202-0.036l-0.202-0.043l-0.202-0.044l0,0l-0.201-0.058l0,0
			l-0.202-0.05l-0.202-0.065l-0.194-0.065l0,0l-0.194-0.072l-0.201-0.08l-0.189-0.079h-0.006l-0.188-0.087l0,0l-0.188-0.086
			l-0.188-0.101h-0.007l-0.181-0.102h-0.006l-0.182-0.101l-0.18-0.115h-0.007l-0.174-0.116l-0.181-0.123l0,0l-0.173-0.122h-0.007
			l-0.166-0.129h-0.007l-0.165-0.13l-0.166-0.144l0,0l-0.166-0.145l0,0l-0.167-0.151l0,0l-0.15-0.151h-0.007l-83.04-83.047
			l-83.047,83.047c-3.352,3.352-8.833,3.352-12.184,0l-30.478-30.474C59,308.724,59,303.239,62.353,299.88"/>
		<path opacity="0.25" fill-rule="evenodd" clip-rule="evenodd" fill="#272323" d="M225.108,376.548v45.379
			c22.82-8.115,43.434-17.341,62-27.144v-18.235H225.108z M331.213,315.896v52.233c26.249-18.062,46.676-36.434,61.999-52.27
			v-10.221h-38.171h-20.116h-3.712v3.713V315.896z M181.026,435.384v-84.69h-62v96.908
			C141.039,444.501,161.684,440.365,181.026,435.384z"/>
	</g>
</g>
<g id="Layer_2">
</g>
</svg>
