<?xml version="1.0" ?><!DOCTYPE svg  PUBLIC '-//W3C//DTD SVG 1.1//EN'  'http://www.w3.org/Graphics/SVG/1.1/DTD/svg11.dtd'><svg enable-background="new 0 0 128 128" id="Слой_1" version="1.1" viewBox="0 0 128 128" xml:space="preserve" xmlns="http://www.w3.org/2000/svg" xmlns:xlink="http://www.w3.org/1999/xlink"><g><circle cx="64" cy="64" fill="#F1657C" r="60"/></g><g><path d="M64,125.5C30.1,125.5,2.5,97.9,2.5,64S30.1,2.5,64,2.5s61.5,27.6,61.5,61.5S97.9,125.5,64,125.5z M64,5.5   C31.7,5.5,5.5,31.7,5.5,64s26.2,58.5,58.5,58.5s58.5-26.2,58.5-58.5S96.3,5.5,64,5.5z" fill="#62345B"/></g><g opacity="0.3"><path d="M64,4c-1.4,0-2.9,0.1-4.3,0.2c31.1,2.2,55.7,28.1,55.7,59.8s-24.6,57.6-55.7,59.8c1.4,0.1,2.8,0.2,4.3,0.2   c33.1,0,60-26.9,60-60S97.1,4,64,4z" fill="#62345B"/></g><g><rect fill="#FFFFFF" height="25.7" width="77.1" x="25.4" y="51.1"/></g></svg>